<mxfile host="app.diagrams.net" modified="2023-09-14T20:55:40.233Z" agent="Mozilla/5.0 (Windows NT 10.0; Win64; x64) AppleWebKit/537.36 (KHTML, like Gecko) Chrome/116.0.0.0 Safari/537.36" etag="6_OvfyJ5Hr9e2AmkoBnP" version="21.7.5" type="device">
  <diagram id="0zx48TExtGR6wXhQPlg_" name="PÃ¡gina-1">
    <mxGraphModel dx="1120" dy="478" grid="1" gridSize="10" guides="1" tooltips="1" connect="1" arrows="1" fold="1" page="1" pageScale="1" pageWidth="827" pageHeight="1169" math="0" shadow="0">
      <root>
        <mxCell id="0" />
        <mxCell id="1" parent="0" />
        <mxCell id="ggOTtO3rocImcCKtTKWv-1" value="Clientes" style="rounded=0;whiteSpace=wrap;html=1;" parent="1" vertex="1">
          <mxGeometry x="140" y="120" width="120" height="60" as="geometry" />
        </mxCell>
        <mxCell id="ggOTtO3rocImcCKtTKWv-2" value="" style="endArrow=none;html=1;rounded=0;" parent="1" edge="1">
          <mxGeometry width="50" height="50" relative="1" as="geometry">
            <mxPoint x="140" y="130" as="sourcePoint" />
            <mxPoint x="140" y="100" as="targetPoint" />
          </mxGeometry>
        </mxCell>
        <mxCell id="ggOTtO3rocImcCKtTKWv-4" value="" style="endArrow=none;html=1;rounded=0;" parent="1" edge="1">
          <mxGeometry width="50" height="50" relative="1" as="geometry">
            <mxPoint x="164.81" y="120" as="sourcePoint" />
            <mxPoint x="164.81" y="100" as="targetPoint" />
          </mxGeometry>
        </mxCell>
        <mxCell id="ggOTtO3rocImcCKtTKWv-5" value="" style="shape=waypoint;sketch=0;fillStyle=solid;size=6;pointerEvents=1;points=[];fillColor=none;resizable=0;rotatable=0;perimeter=centerPerimeter;snapToPoint=1;" parent="1" vertex="1">
          <mxGeometry x="130" y="90" width="20" height="20" as="geometry" />
        </mxCell>
        <mxCell id="ggOTtO3rocImcCKtTKWv-6" value="cpf_cliente" style="text;html=1;strokeColor=none;fillColor=none;align=center;verticalAlign=middle;whiteSpace=wrap;rounded=0;" parent="1" vertex="1">
          <mxGeometry x="70" y="85" width="60" height="30" as="geometry" />
        </mxCell>
        <mxCell id="ggOTtO3rocImcCKtTKWv-7" value="nome_cliente" style="text;html=1;strokeColor=none;fillColor=none;align=center;verticalAlign=middle;whiteSpace=wrap;rounded=0;" parent="1" vertex="1">
          <mxGeometry x="100" y="65" width="60" height="30" as="geometry" />
        </mxCell>
        <mxCell id="ggOTtO3rocImcCKtTKWv-11" value="" style="endArrow=none;html=1;rounded=0;" parent="1" source="ggOTtO3rocImcCKtTKWv-103" edge="1">
          <mxGeometry width="50" height="50" relative="1" as="geometry">
            <mxPoint x="150" y="410" as="sourcePoint" />
            <mxPoint x="150" y="390" as="targetPoint" />
          </mxGeometry>
        </mxCell>
        <mxCell id="ggOTtO3rocImcCKtTKWv-17" value="" style="ellipse;whiteSpace=wrap;html=1;" parent="1" vertex="1">
          <mxGeometry x="160" y="90" width="10" height="10" as="geometry" />
        </mxCell>
        <mxCell id="ggOTtO3rocImcCKtTKWv-36" value="" style="endArrow=none;html=1;rounded=0;exitX=0.458;exitY=0;exitDx=0;exitDy=0;exitPerimeter=0;" parent="1" source="ggOTtO3rocImcCKtTKWv-1" target="ggOTtO3rocImcCKtTKWv-35" edge="1">
          <mxGeometry width="50" height="50" relative="1" as="geometry">
            <mxPoint x="190" y="120" as="sourcePoint" />
            <mxPoint x="190" y="100" as="targetPoint" />
          </mxGeometry>
        </mxCell>
        <mxCell id="ggOTtO3rocImcCKtTKWv-35" value="" style="ellipse;whiteSpace=wrap;html=1;" parent="1" vertex="1">
          <mxGeometry x="190" y="90" width="10" height="10" as="geometry" />
        </mxCell>
        <mxCell id="ggOTtO3rocImcCKtTKWv-37" value="sobrenome_cliente" style="text;html=1;strokeColor=none;fillColor=none;align=center;verticalAlign=middle;whiteSpace=wrap;rounded=0;" parent="1" vertex="1">
          <mxGeometry x="250" y="85" width="60" height="30" as="geometry" />
        </mxCell>
        <mxCell id="ggOTtO3rocImcCKtTKWv-38" value="" style="endArrow=none;html=1;rounded=0;exitX=0.458;exitY=0;exitDx=0;exitDy=0;exitPerimeter=0;" parent="1" target="ggOTtO3rocImcCKtTKWv-39" edge="1">
          <mxGeometry width="50" height="50" relative="1" as="geometry">
            <mxPoint x="215" y="120" as="sourcePoint" />
            <mxPoint x="210" y="100" as="targetPoint" />
          </mxGeometry>
        </mxCell>
        <mxCell id="ggOTtO3rocImcCKtTKWv-39" value="" style="ellipse;whiteSpace=wrap;html=1;" parent="1" vertex="1">
          <mxGeometry x="210" y="95" width="10" height="10" as="geometry" />
        </mxCell>
        <mxCell id="ggOTtO3rocImcCKtTKWv-40" value="email" style="text;html=1;strokeColor=none;fillColor=none;align=center;verticalAlign=middle;whiteSpace=wrap;rounded=0;" parent="1" vertex="1">
          <mxGeometry x="165" y="65" width="60" height="30" as="geometry" />
        </mxCell>
        <mxCell id="ggOTtO3rocImcCKtTKWv-43" value="" style="endArrow=none;html=1;rounded=0;exitX=0.458;exitY=0;exitDx=0;exitDy=0;exitPerimeter=0;" parent="1" edge="1">
          <mxGeometry width="50" height="50" relative="1" as="geometry">
            <mxPoint x="140" y="124.81" as="sourcePoint" />
            <mxPoint x="125" y="124.81" as="targetPoint" />
            <Array as="points">
              <mxPoint x="135" y="124.81" />
            </Array>
          </mxGeometry>
        </mxCell>
        <mxCell id="ggOTtO3rocImcCKtTKWv-44" value="" style="ellipse;whiteSpace=wrap;html=1;" parent="1" vertex="1">
          <mxGeometry x="115" y="120" width="10" height="10" as="geometry" />
        </mxCell>
        <mxCell id="ggOTtO3rocImcCKtTKWv-48" value="" style="endArrow=none;html=1;rounded=0;exitX=0.458;exitY=0;exitDx=0;exitDy=0;exitPerimeter=0;" parent="1" edge="1">
          <mxGeometry width="50" height="50" relative="1" as="geometry">
            <mxPoint x="140" y="144.81" as="sourcePoint" />
            <mxPoint x="125" y="144.81" as="targetPoint" />
            <Array as="points">
              <mxPoint x="135" y="144.81" />
            </Array>
          </mxGeometry>
        </mxCell>
        <mxCell id="ggOTtO3rocImcCKtTKWv-49" value="" style="ellipse;whiteSpace=wrap;html=1;" parent="1" vertex="1">
          <mxGeometry x="115" y="140" width="10" height="10" as="geometry" />
        </mxCell>
        <mxCell id="ggOTtO3rocImcCKtTKWv-50" value="" style="endArrow=none;html=1;rounded=0;exitX=0.458;exitY=0;exitDx=0;exitDy=0;exitPerimeter=0;" parent="1" edge="1">
          <mxGeometry width="50" height="50" relative="1" as="geometry">
            <mxPoint x="140" y="164.81" as="sourcePoint" />
            <mxPoint x="125" y="164.81" as="targetPoint" />
            <Array as="points">
              <mxPoint x="135" y="164.81" />
            </Array>
          </mxGeometry>
        </mxCell>
        <mxCell id="ggOTtO3rocImcCKtTKWv-51" value="" style="ellipse;whiteSpace=wrap;html=1;" parent="1" vertex="1">
          <mxGeometry x="115" y="160" width="10" height="10" as="geometry" />
        </mxCell>
        <mxCell id="ggOTtO3rocImcCKtTKWv-52" value="rua" style="text;html=1;strokeColor=none;fillColor=none;align=center;verticalAlign=middle;whiteSpace=wrap;rounded=0;" parent="1" vertex="1">
          <mxGeometry x="70" y="110" width="60" height="30" as="geometry" />
        </mxCell>
        <mxCell id="ggOTtO3rocImcCKtTKWv-55" value="" style="endArrow=none;html=1;rounded=0;exitX=0.458;exitY=0;exitDx=0;exitDy=0;exitPerimeter=0;" parent="1" target="ggOTtO3rocImcCKtTKWv-56" edge="1">
          <mxGeometry width="50" height="50" relative="1" as="geometry">
            <mxPoint x="155" y="180" as="sourcePoint" />
            <mxPoint x="150" y="160" as="targetPoint" />
          </mxGeometry>
        </mxCell>
        <mxCell id="ggOTtO3rocImcCKtTKWv-56" value="" style="ellipse;whiteSpace=wrap;html=1;" parent="1" vertex="1">
          <mxGeometry x="150" y="195" width="10" height="10" as="geometry" />
        </mxCell>
        <mxCell id="ggOTtO3rocImcCKtTKWv-59" value="cidade" style="text;html=1;strokeColor=none;fillColor=none;align=center;verticalAlign=middle;whiteSpace=wrap;rounded=0;" parent="1" vertex="1">
          <mxGeometry x="65" y="130" width="60" height="30" as="geometry" />
        </mxCell>
        <mxCell id="ggOTtO3rocImcCKtTKWv-60" value="estado" style="text;html=1;strokeColor=none;fillColor=none;align=center;verticalAlign=middle;whiteSpace=wrap;rounded=0;" parent="1" vertex="1">
          <mxGeometry x="65" y="150" width="60" height="30" as="geometry" />
        </mxCell>
        <mxCell id="ggOTtO3rocImcCKtTKWv-61" value="pais" style="text;html=1;strokeColor=none;fillColor=none;align=center;verticalAlign=middle;whiteSpace=wrap;rounded=0;" parent="1" vertex="1">
          <mxGeometry x="105" y="185" width="60" height="30" as="geometry" />
        </mxCell>
        <mxCell id="ggOTtO3rocImcCKtTKWv-63" value="" style="endArrow=none;html=1;rounded=0;exitX=0.292;exitY=1;exitDx=0;exitDy=0;exitPerimeter=0;" parent="1" source="ggOTtO3rocImcCKtTKWv-1" target="ggOTtO3rocImcCKtTKWv-64" edge="1">
          <mxGeometry width="50" height="50" relative="1" as="geometry">
            <mxPoint x="200" y="180" as="sourcePoint" />
            <mxPoint x="195" y="160" as="targetPoint" />
          </mxGeometry>
        </mxCell>
        <mxCell id="ggOTtO3rocImcCKtTKWv-64" value="" style="ellipse;whiteSpace=wrap;html=1;" parent="1" vertex="1">
          <mxGeometry x="170" y="205" width="10" height="10" as="geometry" />
        </mxCell>
        <mxCell id="ggOTtO3rocImcCKtTKWv-65" value="telefone" style="text;html=1;strokeColor=none;fillColor=none;align=center;verticalAlign=middle;whiteSpace=wrap;rounded=0;" parent="1" vertex="1">
          <mxGeometry x="115" y="200" width="60" height="30" as="geometry" />
        </mxCell>
        <mxCell id="ggOTtO3rocImcCKtTKWv-66" value="Animais" style="rounded=0;whiteSpace=wrap;html=1;" parent="1" vertex="1">
          <mxGeometry x="140" y="330" width="120" height="60" as="geometry" />
        </mxCell>
        <mxCell id="ggOTtO3rocImcCKtTKWv-67" value="" style="endArrow=none;html=1;rounded=0;" parent="1" edge="1">
          <mxGeometry width="50" height="50" relative="1" as="geometry">
            <mxPoint x="140" y="340" as="sourcePoint" />
            <mxPoint x="140" y="310" as="targetPoint" />
          </mxGeometry>
        </mxCell>
        <mxCell id="ggOTtO3rocImcCKtTKWv-68" value="" style="endArrow=none;html=1;rounded=0;" parent="1" edge="1">
          <mxGeometry width="50" height="50" relative="1" as="geometry">
            <mxPoint x="164.81" y="330" as="sourcePoint" />
            <mxPoint x="164.81" y="310" as="targetPoint" />
          </mxGeometry>
        </mxCell>
        <mxCell id="ggOTtO3rocImcCKtTKWv-69" value="" style="shape=waypoint;sketch=0;fillStyle=solid;size=6;pointerEvents=1;points=[];fillColor=none;resizable=0;rotatable=0;perimeter=centerPerimeter;snapToPoint=1;" parent="1" vertex="1">
          <mxGeometry x="130" y="300" width="20" height="20" as="geometry" />
        </mxCell>
        <mxCell id="ggOTtO3rocImcCKtTKWv-70" value="id_animal" style="text;html=1;strokeColor=none;fillColor=none;align=center;verticalAlign=middle;whiteSpace=wrap;rounded=0;" parent="1" vertex="1">
          <mxGeometry x="70" y="295" width="60" height="30" as="geometry" />
        </mxCell>
        <mxCell id="ggOTtO3rocImcCKtTKWv-71" value="nome_animal" style="text;html=1;strokeColor=none;fillColor=none;align=center;verticalAlign=middle;whiteSpace=wrap;rounded=0;" parent="1" vertex="1">
          <mxGeometry x="100" y="275" width="60" height="30" as="geometry" />
        </mxCell>
        <mxCell id="ggOTtO3rocImcCKtTKWv-72" value="" style="ellipse;whiteSpace=wrap;html=1;" parent="1" vertex="1">
          <mxGeometry x="160" y="300" width="10" height="10" as="geometry" />
        </mxCell>
        <mxCell id="ggOTtO3rocImcCKtTKWv-73" value="" style="endArrow=none;html=1;rounded=0;exitX=0.458;exitY=0;exitDx=0;exitDy=0;exitPerimeter=0;" parent="1" source="ggOTtO3rocImcCKtTKWv-66" target="ggOTtO3rocImcCKtTKWv-74" edge="1">
          <mxGeometry width="50" height="50" relative="1" as="geometry">
            <mxPoint x="190" y="330" as="sourcePoint" />
            <mxPoint x="190" y="310" as="targetPoint" />
          </mxGeometry>
        </mxCell>
        <mxCell id="ggOTtO3rocImcCKtTKWv-74" value="" style="ellipse;whiteSpace=wrap;html=1;" parent="1" vertex="1">
          <mxGeometry x="190" y="300" width="10" height="10" as="geometry" />
        </mxCell>
        <mxCell id="ggOTtO3rocImcCKtTKWv-78" value="especie" style="text;html=1;strokeColor=none;fillColor=none;align=center;verticalAlign=middle;whiteSpace=wrap;rounded=0;" parent="1" vertex="1">
          <mxGeometry x="165" y="275" width="60" height="30" as="geometry" />
        </mxCell>
        <mxCell id="ggOTtO3rocImcCKtTKWv-79" value="" style="endArrow=none;html=1;rounded=0;exitX=0.458;exitY=0;exitDx=0;exitDy=0;exitPerimeter=0;" parent="1" edge="1">
          <mxGeometry width="50" height="50" relative="1" as="geometry">
            <mxPoint x="140" y="334.81" as="sourcePoint" />
            <mxPoint x="125" y="334.81" as="targetPoint" />
            <Array as="points">
              <mxPoint x="135" y="334.81" />
            </Array>
          </mxGeometry>
        </mxCell>
        <mxCell id="ggOTtO3rocImcCKtTKWv-80" value="" style="ellipse;whiteSpace=wrap;html=1;" parent="1" vertex="1">
          <mxGeometry x="115" y="330" width="10" height="10" as="geometry" />
        </mxCell>
        <mxCell id="ggOTtO3rocImcCKtTKWv-81" value="" style="endArrow=none;html=1;rounded=0;exitX=0.458;exitY=0;exitDx=0;exitDy=0;exitPerimeter=0;" parent="1" edge="1">
          <mxGeometry width="50" height="50" relative="1" as="geometry">
            <mxPoint x="140" y="354.81" as="sourcePoint" />
            <mxPoint x="125" y="354.81" as="targetPoint" />
            <Array as="points">
              <mxPoint x="135" y="354.81" />
            </Array>
          </mxGeometry>
        </mxCell>
        <mxCell id="ggOTtO3rocImcCKtTKWv-82" value="" style="ellipse;whiteSpace=wrap;html=1;" parent="1" vertex="1">
          <mxGeometry x="115" y="350" width="10" height="10" as="geometry" />
        </mxCell>
        <mxCell id="ggOTtO3rocImcCKtTKWv-83" value="" style="endArrow=none;html=1;rounded=0;exitX=0.458;exitY=0;exitDx=0;exitDy=0;exitPerimeter=0;" parent="1" edge="1">
          <mxGeometry width="50" height="50" relative="1" as="geometry">
            <mxPoint x="140" y="374.81" as="sourcePoint" />
            <mxPoint x="125" y="374.81" as="targetPoint" />
            <Array as="points">
              <mxPoint x="135" y="374.81" />
            </Array>
          </mxGeometry>
        </mxCell>
        <mxCell id="ggOTtO3rocImcCKtTKWv-84" value="" style="ellipse;whiteSpace=wrap;html=1;" parent="1" vertex="1">
          <mxGeometry x="115" y="370" width="10" height="10" as="geometry" />
        </mxCell>
        <mxCell id="ggOTtO3rocImcCKtTKWv-85" value="raÃ§a" style="text;html=1;strokeColor=none;fillColor=none;align=center;verticalAlign=middle;whiteSpace=wrap;rounded=0;" parent="1" vertex="1">
          <mxGeometry x="70" y="320" width="60" height="30" as="geometry" />
        </mxCell>
        <mxCell id="ggOTtO3rocImcCKtTKWv-88" value="tutor" style="text;html=1;strokeColor=none;fillColor=none;align=center;verticalAlign=middle;whiteSpace=wrap;rounded=0;" parent="1" vertex="1">
          <mxGeometry x="65" y="340" width="60" height="30" as="geometry" />
        </mxCell>
        <mxCell id="ggOTtO3rocImcCKtTKWv-89" value="idade" style="text;html=1;strokeColor=none;fillColor=none;align=center;verticalAlign=middle;whiteSpace=wrap;rounded=0;" parent="1" vertex="1">
          <mxGeometry x="65" y="360" width="60" height="30" as="geometry" />
        </mxCell>
        <mxCell id="ggOTtO3rocImcCKtTKWv-105" value="Reservas" style="rounded=0;whiteSpace=wrap;html=1;" parent="1" vertex="1">
          <mxGeometry x="595" y="230" width="120" height="60" as="geometry" />
        </mxCell>
        <mxCell id="ggOTtO3rocImcCKtTKWv-106" value="" style="endArrow=none;html=1;rounded=0;" parent="1" edge="1">
          <mxGeometry width="50" height="50" relative="1" as="geometry">
            <mxPoint x="595" y="240" as="sourcePoint" />
            <mxPoint x="595" y="210" as="targetPoint" />
          </mxGeometry>
        </mxCell>
        <mxCell id="ggOTtO3rocImcCKtTKWv-107" value="" style="endArrow=none;html=1;rounded=0;" parent="1" edge="1">
          <mxGeometry width="50" height="50" relative="1" as="geometry">
            <mxPoint x="619.81" y="230" as="sourcePoint" />
            <mxPoint x="619.81" y="210" as="targetPoint" />
          </mxGeometry>
        </mxCell>
        <mxCell id="ggOTtO3rocImcCKtTKWv-108" value="" style="shape=waypoint;sketch=0;fillStyle=solid;size=6;pointerEvents=1;points=[];fillColor=none;resizable=0;rotatable=0;perimeter=centerPerimeter;snapToPoint=1;" parent="1" vertex="1">
          <mxGeometry x="585" y="200" width="20" height="20" as="geometry" />
        </mxCell>
        <mxCell id="ggOTtO3rocImcCKtTKWv-109" value="id_reserva" style="text;html=1;strokeColor=none;fillColor=none;align=center;verticalAlign=middle;whiteSpace=wrap;rounded=0;" parent="1" vertex="1">
          <mxGeometry x="525" y="195" width="60" height="30" as="geometry" />
        </mxCell>
        <mxCell id="ggOTtO3rocImcCKtTKWv-110" value="data" style="text;html=1;strokeColor=none;fillColor=none;align=center;verticalAlign=middle;whiteSpace=wrap;rounded=0;" parent="1" vertex="1">
          <mxGeometry x="580" y="175" width="60" height="30" as="geometry" />
        </mxCell>
        <mxCell id="ggOTtO3rocImcCKtTKWv-111" value="" style="ellipse;whiteSpace=wrap;html=1;" parent="1" vertex="1">
          <mxGeometry x="615" y="200" width="10" height="10" as="geometry" />
        </mxCell>
        <mxCell id="ggOTtO3rocImcCKtTKWv-112" value="" style="endArrow=none;html=1;rounded=0;exitX=0.458;exitY=0;exitDx=0;exitDy=0;exitPerimeter=0;" parent="1" source="ggOTtO3rocImcCKtTKWv-105" target="ggOTtO3rocImcCKtTKWv-113" edge="1">
          <mxGeometry width="50" height="50" relative="1" as="geometry">
            <mxPoint x="645" y="230" as="sourcePoint" />
            <mxPoint x="645" y="210" as="targetPoint" />
          </mxGeometry>
        </mxCell>
        <mxCell id="ggOTtO3rocImcCKtTKWv-113" value="" style="ellipse;whiteSpace=wrap;html=1;" parent="1" vertex="1">
          <mxGeometry x="645" y="200" width="10" height="10" as="geometry" />
        </mxCell>
        <mxCell id="ggOTtO3rocImcCKtTKWv-114" value="hora_saida" style="text;html=1;strokeColor=none;fillColor=none;align=center;verticalAlign=middle;whiteSpace=wrap;rounded=0;" parent="1" vertex="1">
          <mxGeometry x="690" y="195" width="60" height="30" as="geometry" />
        </mxCell>
        <mxCell id="ggOTtO3rocImcCKtTKWv-115" value="" style="endArrow=none;html=1;rounded=0;exitX=0.458;exitY=0;exitDx=0;exitDy=0;exitPerimeter=0;" parent="1" target="ggOTtO3rocImcCKtTKWv-116" edge="1">
          <mxGeometry width="50" height="50" relative="1" as="geometry">
            <mxPoint x="670" y="230" as="sourcePoint" />
            <mxPoint x="665" y="210" as="targetPoint" />
          </mxGeometry>
        </mxCell>
        <mxCell id="ggOTtO3rocImcCKtTKWv-116" value="" style="ellipse;whiteSpace=wrap;html=1;" parent="1" vertex="1">
          <mxGeometry x="665" y="205" width="10" height="10" as="geometry" />
        </mxCell>
        <mxCell id="ggOTtO3rocImcCKtTKWv-117" value="hora_entrada" style="text;html=1;strokeColor=none;fillColor=none;align=center;verticalAlign=middle;whiteSpace=wrap;rounded=0;" parent="1" vertex="1">
          <mxGeometry x="645" y="175" width="60" height="30" as="geometry" />
        </mxCell>
        <mxCell id="ggOTtO3rocImcCKtTKWv-121" value="" style="ellipse;whiteSpace=wrap;html=1;" parent="1" vertex="1">
          <mxGeometry x="730" y="240" width="10" height="10" as="geometry" />
        </mxCell>
        <mxCell id="ggOTtO3rocImcCKtTKWv-122" value="" style="endArrow=none;html=1;rounded=0;exitX=0.458;exitY=0;exitDx=0;exitDy=0;exitPerimeter=0;" parent="1" edge="1">
          <mxGeometry width="50" height="50" relative="1" as="geometry">
            <mxPoint x="730" y="244.6" as="sourcePoint" />
            <mxPoint x="715" y="244.6" as="targetPoint" />
            <Array as="points">
              <mxPoint x="725" y="244.6" />
            </Array>
          </mxGeometry>
        </mxCell>
        <mxCell id="ggOTtO3rocImcCKtTKWv-138" value="" style="endArrow=none;html=1;rounded=0;" parent="1" target="ggOTtO3rocImcCKtTKWv-103" edge="1">
          <mxGeometry width="50" height="50" relative="1" as="geometry">
            <mxPoint x="150" y="410" as="sourcePoint" />
            <mxPoint x="150" y="390" as="targetPoint" />
          </mxGeometry>
        </mxCell>
        <mxCell id="ggOTtO3rocImcCKtTKWv-103" value="" style="ellipse;whiteSpace=wrap;html=1;" parent="1" vertex="1">
          <mxGeometry x="145" y="405" width="10" height="10" as="geometry" />
        </mxCell>
        <mxCell id="ggOTtO3rocImcCKtTKWv-139" value="sexo_animal" style="text;html=1;strokeColor=none;fillColor=none;align=center;verticalAlign=middle;whiteSpace=wrap;rounded=0;" parent="1" vertex="1">
          <mxGeometry x="75" y="395" width="60" height="30" as="geometry" />
        </mxCell>
        <mxCell id="ggOTtO3rocImcCKtTKWv-140" value="observacao_reserva" style="text;html=1;strokeColor=none;fillColor=none;align=center;verticalAlign=middle;whiteSpace=wrap;rounded=0;" parent="1" vertex="1">
          <mxGeometry x="767" y="230" width="60" height="30" as="geometry" />
        </mxCell>
        <mxCell id="ggOTtO3rocImcCKtTKWv-143" value="" style="endArrow=none;html=1;rounded=0;" parent="1" source="ggOTtO3rocImcCKtTKWv-144" edge="1">
          <mxGeometry width="50" height="50" relative="1" as="geometry">
            <mxPoint x="180" y="410" as="sourcePoint" />
            <mxPoint x="180" y="390" as="targetPoint" />
          </mxGeometry>
        </mxCell>
        <mxCell id="ggOTtO3rocImcCKtTKWv-144" value="" style="ellipse;whiteSpace=wrap;html=1;" parent="1" vertex="1">
          <mxGeometry x="175" y="405" width="10" height="10" as="geometry" />
        </mxCell>
        <mxCell id="ggOTtO3rocImcCKtTKWv-145" value="observacao" style="text;html=1;strokeColor=none;fillColor=none;align=center;verticalAlign=middle;whiteSpace=wrap;rounded=0;" parent="1" vertex="1">
          <mxGeometry x="190" y="395" width="60" height="30" as="geometry" />
        </mxCell>
        <mxCell id="ggOTtO3rocImcCKtTKWv-170" value="tutoram" style="rhombus;whiteSpace=wrap;html=1;" parent="1" vertex="1">
          <mxGeometry x="210" y="220" width="50" height="50" as="geometry" />
        </mxCell>
        <mxCell id="ggOTtO3rocImcCKtTKWv-172" value="" style="endArrow=none;html=1;rounded=0;entryX=0.5;entryY=1;entryDx=0;entryDy=0;exitX=0.808;exitY=-0.017;exitDx=0;exitDy=0;exitPerimeter=0;" parent="1" source="ggOTtO3rocImcCKtTKWv-66" target="ggOTtO3rocImcCKtTKWv-170" edge="1">
          <mxGeometry width="50" height="50" relative="1" as="geometry">
            <mxPoint x="340" y="310" as="sourcePoint" />
            <mxPoint x="390" y="260" as="targetPoint" />
          </mxGeometry>
        </mxCell>
        <mxCell id="ggOTtO3rocImcCKtTKWv-173" value="" style="endArrow=none;html=1;rounded=0;entryX=0.833;entryY=0.967;entryDx=0;entryDy=0;exitX=0.5;exitY=0;exitDx=0;exitDy=0;entryPerimeter=0;" parent="1" source="ggOTtO3rocImcCKtTKWv-170" target="ggOTtO3rocImcCKtTKWv-1" edge="1">
          <mxGeometry width="50" height="50" relative="1" as="geometry">
            <mxPoint x="340" y="310" as="sourcePoint" />
            <mxPoint x="390" y="260" as="targetPoint" />
          </mxGeometry>
        </mxCell>
        <mxCell id="ggOTtO3rocImcCKtTKWv-183" value="possuem" style="rhombus;whiteSpace=wrap;html=1;" parent="1" vertex="1">
          <mxGeometry x="370" y="320" width="80" height="80" as="geometry" />
        </mxCell>
        <mxCell id="ggOTtO3rocImcCKtTKWv-184" value="" style="endArrow=none;html=1;rounded=0;exitX=1;exitY=0.5;exitDx=0;exitDy=0;" parent="1" source="ggOTtO3rocImcCKtTKWv-66" edge="1">
          <mxGeometry width="50" height="50" relative="1" as="geometry">
            <mxPoint x="480" y="340" as="sourcePoint" />
            <mxPoint x="370" y="360" as="targetPoint" />
          </mxGeometry>
        </mxCell>
        <mxCell id="ggOTtO3rocImcCKtTKWv-185" value="" style="endArrow=none;html=1;rounded=0;exitX=0.5;exitY=0;exitDx=0;exitDy=0;" parent="1" source="ggOTtO3rocImcCKtTKWv-183" edge="1">
          <mxGeometry width="50" height="50" relative="1" as="geometry">
            <mxPoint x="480" y="340" as="sourcePoint" />
            <mxPoint x="410" y="260" as="targetPoint" />
          </mxGeometry>
        </mxCell>
        <mxCell id="ggOTtO3rocImcCKtTKWv-187" value="" style="endArrow=none;html=1;rounded=0;entryX=0;entryY=0.5;entryDx=0;entryDy=0;" parent="1" target="ggOTtO3rocImcCKtTKWv-105" edge="1">
          <mxGeometry width="50" height="50" relative="1" as="geometry">
            <mxPoint x="410" y="260" as="sourcePoint" />
            <mxPoint x="590" y="260" as="targetPoint" />
          </mxGeometry>
        </mxCell>
        <mxCell id="APrqZgsGzZIo6Ghcfjsz-64" value="Planos" style="rounded=0;whiteSpace=wrap;html=1;" parent="1" vertex="1">
          <mxGeometry x="1000" y="366" width="120" height="60" as="geometry" />
        </mxCell>
        <mxCell id="APrqZgsGzZIo6Ghcfjsz-65" value="" style="endArrow=none;html=1;rounded=0;" parent="1" edge="1">
          <mxGeometry width="50" height="50" relative="1" as="geometry">
            <mxPoint x="1000" y="376" as="sourcePoint" />
            <mxPoint x="1000" y="346" as="targetPoint" />
          </mxGeometry>
        </mxCell>
        <mxCell id="APrqZgsGzZIo6Ghcfjsz-66" value="" style="endArrow=none;html=1;rounded=0;" parent="1" edge="1">
          <mxGeometry width="50" height="50" relative="1" as="geometry">
            <mxPoint x="1024.81" y="366" as="sourcePoint" />
            <mxPoint x="1024.81" y="346" as="targetPoint" />
          </mxGeometry>
        </mxCell>
        <mxCell id="APrqZgsGzZIo6Ghcfjsz-67" value="" style="shape=waypoint;sketch=0;fillStyle=solid;size=6;pointerEvents=1;points=[];fillColor=none;resizable=0;rotatable=0;perimeter=centerPerimeter;snapToPoint=1;" parent="1" vertex="1">
          <mxGeometry x="990" y="336" width="20" height="20" as="geometry" />
        </mxCell>
        <mxCell id="APrqZgsGzZIo6Ghcfjsz-68" value="id_plano" style="text;html=1;strokeColor=none;fillColor=none;align=center;verticalAlign=middle;whiteSpace=wrap;rounded=0;" parent="1" vertex="1">
          <mxGeometry x="930" y="331" width="60" height="30" as="geometry" />
        </mxCell>
        <mxCell id="APrqZgsGzZIo6Ghcfjsz-69" value="nome_plano" style="text;html=1;strokeColor=none;fillColor=none;align=center;verticalAlign=middle;whiteSpace=wrap;rounded=0;" parent="1" vertex="1">
          <mxGeometry x="960" y="311" width="60" height="30" as="geometry" />
        </mxCell>
        <mxCell id="APrqZgsGzZIo6Ghcfjsz-70" value="" style="ellipse;whiteSpace=wrap;html=1;" parent="1" vertex="1">
          <mxGeometry x="1020" y="336" width="10" height="10" as="geometry" />
        </mxCell>
        <mxCell id="APrqZgsGzZIo6Ghcfjsz-71" value="" style="endArrow=none;html=1;rounded=0;exitX=0.458;exitY=0;exitDx=0;exitDy=0;exitPerimeter=0;" parent="1" source="APrqZgsGzZIo6Ghcfjsz-64" target="APrqZgsGzZIo6Ghcfjsz-72" edge="1">
          <mxGeometry width="50" height="50" relative="1" as="geometry">
            <mxPoint x="1050" y="366" as="sourcePoint" />
            <mxPoint x="1050" y="346" as="targetPoint" />
          </mxGeometry>
        </mxCell>
        <mxCell id="APrqZgsGzZIo6Ghcfjsz-72" value="" style="ellipse;whiteSpace=wrap;html=1;" parent="1" vertex="1">
          <mxGeometry x="1050" y="336" width="10" height="10" as="geometry" />
        </mxCell>
        <mxCell id="APrqZgsGzZIo6Ghcfjsz-73" value="duracao_plano" style="text;html=1;strokeColor=none;fillColor=none;align=center;verticalAlign=middle;whiteSpace=wrap;rounded=0;" parent="1" vertex="1">
          <mxGeometry x="1110" y="331" width="60" height="30" as="geometry" />
        </mxCell>
        <mxCell id="APrqZgsGzZIo6Ghcfjsz-74" value="" style="endArrow=none;html=1;rounded=0;exitX=0.458;exitY=0;exitDx=0;exitDy=0;exitPerimeter=0;" parent="1" target="APrqZgsGzZIo6Ghcfjsz-75" edge="1">
          <mxGeometry width="50" height="50" relative="1" as="geometry">
            <mxPoint x="1075" y="366" as="sourcePoint" />
            <mxPoint x="1070" y="346" as="targetPoint" />
          </mxGeometry>
        </mxCell>
        <mxCell id="APrqZgsGzZIo6Ghcfjsz-75" value="" style="ellipse;whiteSpace=wrap;html=1;" parent="1" vertex="1">
          <mxGeometry x="1070" y="341" width="10" height="10" as="geometry" />
        </mxCell>
        <mxCell id="APrqZgsGzZIo6Ghcfjsz-76" value="descricao_plano" style="text;html=1;strokeColor=none;fillColor=none;align=center;verticalAlign=middle;whiteSpace=wrap;rounded=0;" parent="1" vertex="1">
          <mxGeometry x="1050" y="310" width="60" height="30" as="geometry" />
        </mxCell>
        <mxCell id="APrqZgsGzZIo6Ghcfjsz-77" value="" style="endArrow=none;html=1;rounded=0;exitX=0.458;exitY=0;exitDx=0;exitDy=0;exitPerimeter=0;" parent="1" edge="1">
          <mxGeometry width="50" height="50" relative="1" as="geometry">
            <mxPoint x="1000" y="370.80999999999995" as="sourcePoint" />
            <mxPoint x="985" y="370.80999999999995" as="targetPoint" />
            <Array as="points">
              <mxPoint x="995" y="370.80999999999995" />
            </Array>
          </mxGeometry>
        </mxCell>
        <mxCell id="APrqZgsGzZIo6Ghcfjsz-78" value="" style="ellipse;whiteSpace=wrap;html=1;" parent="1" vertex="1">
          <mxGeometry x="975" y="366" width="10" height="10" as="geometry" />
        </mxCell>
        <mxCell id="APrqZgsGzZIo6Ghcfjsz-79" value="" style="endArrow=none;html=1;rounded=0;exitX=0.458;exitY=0;exitDx=0;exitDy=0;exitPerimeter=0;" parent="1" edge="1">
          <mxGeometry width="50" height="50" relative="1" as="geometry">
            <mxPoint x="1000" y="390.80999999999995" as="sourcePoint" />
            <mxPoint x="985" y="390.80999999999995" as="targetPoint" />
            <Array as="points">
              <mxPoint x="995" y="390.80999999999995" />
            </Array>
          </mxGeometry>
        </mxCell>
        <mxCell id="APrqZgsGzZIo6Ghcfjsz-80" value="" style="ellipse;whiteSpace=wrap;html=1;" parent="1" vertex="1">
          <mxGeometry x="975" y="386" width="10" height="10" as="geometry" />
        </mxCell>
        <mxCell id="APrqZgsGzZIo6Ghcfjsz-81" value="" style="endArrow=none;html=1;rounded=0;exitX=0.458;exitY=0;exitDx=0;exitDy=0;exitPerimeter=0;" parent="1" edge="1">
          <mxGeometry width="50" height="50" relative="1" as="geometry">
            <mxPoint x="1000" y="410.80999999999995" as="sourcePoint" />
            <mxPoint x="985" y="410.80999999999995" as="targetPoint" />
            <Array as="points">
              <mxPoint x="995" y="410.80999999999995" />
            </Array>
          </mxGeometry>
        </mxCell>
        <mxCell id="APrqZgsGzZIo6Ghcfjsz-82" value="" style="ellipse;whiteSpace=wrap;html=1;" parent="1" vertex="1">
          <mxGeometry x="975" y="406" width="10" height="10" as="geometry" />
        </mxCell>
        <mxCell id="APrqZgsGzZIo6Ghcfjsz-83" value="tipo_acomodacao" style="text;html=1;strokeColor=none;fillColor=none;align=center;verticalAlign=middle;whiteSpace=wrap;rounded=0;" parent="1" vertex="1">
          <mxGeometry x="895" y="356" width="60" height="30" as="geometry" />
        </mxCell>
        <mxCell id="APrqZgsGzZIo6Ghcfjsz-84" value="" style="endArrow=none;html=1;rounded=0;exitX=0.458;exitY=0;exitDx=0;exitDy=0;exitPerimeter=0;" parent="1" target="APrqZgsGzZIo6Ghcfjsz-85" edge="1">
          <mxGeometry width="50" height="50" relative="1" as="geometry">
            <mxPoint x="1015" y="426" as="sourcePoint" />
            <mxPoint x="1010" y="406" as="targetPoint" />
          </mxGeometry>
        </mxCell>
        <mxCell id="APrqZgsGzZIo6Ghcfjsz-85" value="" style="ellipse;whiteSpace=wrap;html=1;" parent="1" vertex="1">
          <mxGeometry x="1010" y="441" width="10" height="10" as="geometry" />
        </mxCell>
        <mxCell id="APrqZgsGzZIo6Ghcfjsz-86" value="tamanho_acomodacao" style="text;html=1;strokeColor=none;fillColor=none;align=center;verticalAlign=middle;whiteSpace=wrap;rounded=0;" parent="1" vertex="1">
          <mxGeometry x="880" y="376" width="60" height="30" as="geometry" />
        </mxCell>
        <mxCell id="APrqZgsGzZIo6Ghcfjsz-87" value="preco_plano" style="text;html=1;strokeColor=none;fillColor=none;align=center;verticalAlign=middle;whiteSpace=wrap;rounded=0;" parent="1" vertex="1">
          <mxGeometry x="905" y="396" width="60" height="30" as="geometry" />
        </mxCell>
        <mxCell id="APrqZgsGzZIo6Ghcfjsz-88" value="" style="endArrow=none;html=1;rounded=0;exitX=0.292;exitY=1;exitDx=0;exitDy=0;exitPerimeter=0;" parent="1" source="APrqZgsGzZIo6Ghcfjsz-90" edge="1">
          <mxGeometry width="50" height="50" relative="1" as="geometry">
            <mxPoint x="1060" y="426" as="sourcePoint" />
            <mxPoint x="1035" y="451" as="targetPoint" />
          </mxGeometry>
        </mxCell>
        <mxCell id="APrqZgsGzZIo6Ghcfjsz-89" value="" style="endArrow=none;html=1;rounded=0;exitX=0.292;exitY=1;exitDx=0;exitDy=0;exitPerimeter=0;" parent="1" source="APrqZgsGzZIo6Ghcfjsz-64" target="APrqZgsGzZIo6Ghcfjsz-90" edge="1">
          <mxGeometry width="50" height="50" relative="1" as="geometry">
            <mxPoint x="1035" y="426" as="sourcePoint" />
            <mxPoint x="1035" y="451" as="targetPoint" />
          </mxGeometry>
        </mxCell>
        <mxCell id="APrqZgsGzZIo6Ghcfjsz-90" value="" style="ellipse;whiteSpace=wrap;html=1;" parent="1" vertex="1">
          <mxGeometry x="1030" y="441" width="10" height="10" as="geometry" />
        </mxCell>
        <mxCell id="APrqZgsGzZIo6Ghcfjsz-91" value="restricao_especie" style="text;html=1;strokeColor=none;fillColor=none;align=center;verticalAlign=middle;whiteSpace=wrap;rounded=0;" parent="1" vertex="1">
          <mxGeometry x="925" y="431" width="60" height="30" as="geometry" />
        </mxCell>
        <mxCell id="APrqZgsGzZIo6Ghcfjsz-92" value="disponibilidade" style="text;html=1;strokeColor=none;fillColor=none;align=center;verticalAlign=middle;whiteSpace=wrap;rounded=0;" parent="1" vertex="1">
          <mxGeometry x="1055" y="431" width="60" height="30" as="geometry" />
        </mxCell>
        <mxCell id="APrqZgsGzZIo6Ghcfjsz-93" value="contÃ©m" style="rhombus;whiteSpace=wrap;html=1;" parent="1" vertex="1">
          <mxGeometry x="730" y="300" width="80" height="80" as="geometry" />
        </mxCell>
        <mxCell id="APrqZgsGzZIo6Ghcfjsz-94" value="" style="endArrow=none;html=1;rounded=0;entryX=0.5;entryY=1;entryDx=0;entryDy=0;" parent="1" target="ggOTtO3rocImcCKtTKWv-105" edge="1">
          <mxGeometry width="50" height="50" relative="1" as="geometry">
            <mxPoint x="655" y="340" as="sourcePoint" />
            <mxPoint x="750" y="320" as="targetPoint" />
          </mxGeometry>
        </mxCell>
        <mxCell id="APrqZgsGzZIo6Ghcfjsz-95" value="" style="endArrow=none;html=1;rounded=0;entryX=0;entryY=0.5;entryDx=0;entryDy=0;" parent="1" target="APrqZgsGzZIo6Ghcfjsz-93" edge="1">
          <mxGeometry width="50" height="50" relative="1" as="geometry">
            <mxPoint x="650" y="340" as="sourcePoint" />
            <mxPoint x="750" y="320" as="targetPoint" />
          </mxGeometry>
        </mxCell>
        <mxCell id="APrqZgsGzZIo6Ghcfjsz-96" value="" style="endArrow=none;html=1;rounded=0;exitX=0.5;exitY=1;exitDx=0;exitDy=0;" parent="1" source="APrqZgsGzZIo6Ghcfjsz-93" edge="1">
          <mxGeometry width="50" height="50" relative="1" as="geometry">
            <mxPoint x="700" y="370" as="sourcePoint" />
            <mxPoint x="770" y="500" as="targetPoint" />
          </mxGeometry>
        </mxCell>
        <mxCell id="APrqZgsGzZIo6Ghcfjsz-97" value="" style="endArrow=none;html=1;rounded=0;" parent="1" edge="1">
          <mxGeometry width="50" height="50" relative="1" as="geometry">
            <mxPoint x="770" y="500" as="sourcePoint" />
            <mxPoint x="1190" y="500" as="targetPoint" />
          </mxGeometry>
        </mxCell>
        <mxCell id="APrqZgsGzZIo6Ghcfjsz-98" value="" style="endArrow=none;html=1;rounded=0;" parent="1" edge="1">
          <mxGeometry width="50" height="50" relative="1" as="geometry">
            <mxPoint x="1190" y="500" as="sourcePoint" />
            <mxPoint x="1190" y="410" as="targetPoint" />
          </mxGeometry>
        </mxCell>
        <mxCell id="APrqZgsGzZIo6Ghcfjsz-99" value="" style="endArrow=none;html=1;rounded=0;exitX=1;exitY=0.75;exitDx=0;exitDy=0;" parent="1" source="APrqZgsGzZIo6Ghcfjsz-64" edge="1">
          <mxGeometry width="50" height="50" relative="1" as="geometry">
            <mxPoint x="920" y="370" as="sourcePoint" />
            <mxPoint x="1190" y="410" as="targetPoint" />
          </mxGeometry>
        </mxCell>
        <mxCell id="E9Up3nrTR-Q0EGspeJLe-1" value="" style="ellipse;whiteSpace=wrap;html=1;" vertex="1" parent="1">
          <mxGeometry x="740" y="270" width="10" height="10" as="geometry" />
        </mxCell>
        <mxCell id="E9Up3nrTR-Q0EGspeJLe-2" value="status_reserva" style="text;html=1;strokeColor=none;fillColor=none;align=center;verticalAlign=middle;whiteSpace=wrap;rounded=0;" vertex="1" parent="1">
          <mxGeometry x="770" y="255" width="60" height="30" as="geometry" />
        </mxCell>
        <mxCell id="E9Up3nrTR-Q0EGspeJLe-3" value="" style="endArrow=none;html=1;rounded=0;entryX=1;entryY=0.75;entryDx=0;entryDy=0;" edge="1" parent="1" target="ggOTtO3rocImcCKtTKWv-105">
          <mxGeometry width="50" height="50" relative="1" as="geometry">
            <mxPoint x="740" y="275" as="sourcePoint" />
            <mxPoint x="720" y="270" as="targetPoint" />
            <Array as="points" />
          </mxGeometry>
        </mxCell>
        <mxCell id="E9Up3nrTR-Q0EGspeJLe-6" value="(0,N)" style="text;html=1;strokeColor=none;fillColor=none;align=center;verticalAlign=middle;whiteSpace=wrap;rounded=0;" vertex="1" parent="1">
          <mxGeometry x="250" y="361" width="60" height="30" as="geometry" />
        </mxCell>
        <mxCell id="E9Up3nrTR-Q0EGspeJLe-7" value="(0,N)" style="text;html=1;strokeColor=none;fillColor=none;align=center;verticalAlign=middle;whiteSpace=wrap;rounded=0;" vertex="1" parent="1">
          <mxGeometry x="230" y="175" width="60" height="30" as="geometry" />
        </mxCell>
        <mxCell id="E9Up3nrTR-Q0EGspeJLe-8" value="(1,1)" style="text;html=1;strokeColor=none;fillColor=none;align=center;verticalAlign=middle;whiteSpace=wrap;rounded=0;" vertex="1" parent="1">
          <mxGeometry x="190" y="305" width="60" height="30" as="geometry" />
        </mxCell>
        <mxCell id="E9Up3nrTR-Q0EGspeJLe-10" value="(0,N)" style="text;html=1;strokeColor=none;fillColor=none;align=center;verticalAlign=middle;whiteSpace=wrap;rounded=0;" vertex="1" parent="1">
          <mxGeometry x="1110" y="385" width="60" height="30" as="geometry" />
        </mxCell>
      </root>
    </mxGraphModel>
  </diagram>
</mxfile>
